<svg width="508" height="28" viewBox="0 0 508 28" xmlns="http://www.w3.org/2000/svg" fill="yellow" stroke="yellow">
<mask id="mask0" mask-type="alpha" maskUnits="userSpaceOnUse" x="0" y="0" width="508" height="28">
<path d="M28 14C28 21.732 21.732 28 14 28C6.26801 28 0 21.732 0 14C0 6.26801 6.26801 0 14 0C21.732 0 28 6.26801 28 14Z" fill="#623A8A"/>
<path d="M76 14C76 21.732 69.732 28 62 28C54.268 28 48 21.732 48 14C48 6.26801 54.268 0 62 0C69.732 0 76 6.26801 76 14Z" fill="#623A8A"/>
<path d="M124 14C124 21.732 117.732 28 110 28C102.268 28 96 21.732 96 14C96 6.26801 102.268 0 110 0C117.732 0 124 6.26801 124 14Z" fill="#623A8A"/>
<path d="M172 14C172 21.732 165.732 28 158 28C150.268 28 144 21.732 144 14C144 6.26801 150.268 0 158 0C165.732 0 172 6.26801 172 14Z" fill="#623A8A"/>
<path d="M220 14C220 21.732 213.732 28 206 28C198.268 28 192 21.732 192 14C192 6.26801 198.268 0 206 0C213.732 0 220 6.26801 220 14Z" fill="#623A8A"/>
<path d="M268 14C268 21.732 261.732 28 254 28C246.268 28 240 21.732 240 14C240 6.26801 246.268 0 254 0C261.732 0 268 6.26801 268 14Z" fill="#623A8A"/>
<path d="M316 14C316 21.732 309.732 28 302 28C294.268 28 288 21.732 288 14C288 6.26801 294.268 0 302 0C309.732 0 316 6.26801 316 14Z" fill="#623A8A"/>
<path d="M364 14C364 21.732 357.732 28 350 28C342.268 28 336 21.732 336 14C336 6.26801 342.268 0 350 0C357.732 0 364 6.26801 364 14Z" fill="#623A8A"/>
<path d="M412 14C412 21.732 405.732 28 398 28C390.268 28 384 21.732 384 14C384 6.26801 390.268 0 398 0C405.732 0 412 6.26801 412 14Z" fill="#623A8A"/>
<path d="M460 14C460 21.732 453.732 28 446 28C438.268 28 432 21.732 432 14C432 6.26801 438.268 0 446 0C453.732 0 460 6.26801 460 14Z" fill="#623A8A"/>
<path d="M508 14C508 21.732 501.732 28 494 28C486.268 28 480 21.732 480 14C480 6.26801 486.268 0 494 0C501.732 0 508 6.26801 508 14Z" fill="#623A8A"/>
</mask>
<g mask="url(#mask0)">
<rect x="-51" y="-46" width="600" height="122" fill="#FFBC01"/>
<rect x="-1" y="-46" width="600" height="122" fill="#623A8A"/>
</g>
</svg>
