<svg width="43" height="41" viewBox="0 0 43 41" fill="none" xmlns="http://www.w3.org/2000/svg">
<path fill-rule="evenodd" clip-rule="evenodd" d="M13.7321 4.21528C12.7755 3.663 12.4478 2.43982 13.0001 1.48323C13.5523 0.526647 14.7755 0.198895 15.7321 0.75118L41.7128 15.7511C42.6693 16.3034 42.9971 17.5266 42.4448 18.4832C41.8925 19.4397 40.6693 19.7675 39.7128 19.2152L13.7321 4.21528ZM9.00005 8.41158C8.44777 9.36816 8.77552 10.5913 9.7321 11.1436L35.7127 26.1436C36.6693 26.6958 37.8925 26.3681 38.4448 25.4115C38.9935 24.4611 38.6736 23.2476 37.7313 22.6903L37.7338 22.6917L37.7298 22.6894L37.7127 22.6795L24.7832 15.2146C23.8398 14.6577 23.5192 13.4434 24.0682 12.4925C24.6165 11.5429 25.8258 11.213 26.7792 11.7484L17.2316 6.23614C18.1759 6.79277 18.4969 8.00763 17.9477 8.95888C17.3996 9.90816 16.1909 10.2382 15.2376 9.70343L11.7321 7.67953C10.7755 7.12724 9.55234 7.45499 9.00005 8.41158ZM1.73214 25C0.77555 24.4478 0.4478 23.2246 1.00008 22.268C1.55237 21.3114 2.77555 20.9837 3.73213 21.5359L29.7128 36.5359C30.6694 37.0882 30.9971 38.3113 30.4448 39.2679C29.8926 40.2245 28.6694 40.5523 27.7128 40L1.73214 25ZM5.73211 18.072C4.77552 17.5197 4.44777 16.2965 5.00006 15.3399C5.55234 14.3833 6.77552 14.0556 7.73211 14.6079L33.7128 29.6078C34.6693 30.1601 34.9971 31.3833 34.4448 32.3399C33.8925 33.2964 32.6693 33.6242 31.7128 33.0719L27.1251 30.4232C26.173 29.8939 24.9687 30.2246 24.4219 31.1716C23.8697 32.1282 24.1974 33.3514 25.154 33.9037L29.7297 36.5455L29.7128 36.5358L3.73211 21.5359L3.71155 21.5238L11.0203 25.7436C11.9769 26.2958 13.2001 25.9681 13.7524 25.0115C14.2987 24.0653 13.9839 22.8582 13.0512 22.2976L5.73211 18.072ZM29.2222 27.0151L21.1537 22.3568C22.1083 22.8987 23.323 22.5697 23.8729 21.6174C24.4252 20.6608 24.0974 19.4376 23.1408 18.8853L9.71925 11.1364L9.73209 11.1437L35.7127 26.1436L35.7273 26.1521L31.2367 23.5595C30.2801 23.0072 29.0569 23.3349 28.5046 24.2915C27.9551 25.2433 28.2768 26.4589 29.2222 27.0151Z" fill="#A776DE"/>
</svg>
